<svg width="385" height="516" viewBox="0 0 385 516" fill="none" xmlns="http://www.w3.org/2000/svg">
<g filter="url(#filter0_f_397_5592)">
<path d="M249.991 357.741C242.315 360.506 234.909 363.038 227.969 365.295C179.737 373.02 222.49 365.978 240.55 378.956C249.455 385.355 254.917 370.811 249.991 357.741C327.667 329.758 432.982 277.848 362.116 245.239C264.78 200.449 261.011 190.125 246.272 157.438C231.534 124.752 180.413 53.7648 145.492 104.687C110.572 155.61 100.732 178.895 102.119 209.947C103.505 241 163.132 254.089 106.593 297.617C50.0537 341.145 123.677 471.419 184.749 415.126C245.822 358.833 126.154 374.132 194.331 346.456C228.888 332.427 244.928 344.306 249.991 357.741Z" fill="#FF4747"/>
</g>
<defs>
<filter id="filter0_f_397_5592" x="0.362854" y="0.849609" width="471.173" height="514.156" filterUnits="userSpaceOnUse" color-interpolation-filters="sRGB">
<feFlood flood-opacity="0" result="BackgroundImageFix"/>
<feBlend mode="normal" in="SourceGraphic" in2="BackgroundImageFix" result="shape"/>
<feGaussianBlur stdDeviation="43" result="effect1_foregroundBlur_397_5592"/>
</filter>
</defs>
</svg>
